<svg version="1.1" id="poro-svg" xmlns="http://www.w3.org/2000/svg" xmlns:xlink="http://www.w3.org/1999/xlink" x="0px" y="0px"
      viewBox="0 0 819 779" enable-background="new 0 0 819 779" xml:space="preserve">
  <polygon points="1,61 81,61 81,81 20.5,81 20.5,101.5 1,101.5 "/>
  <polyline points="81,81 141,81 141,101.5 81,101.5 "/>
  <polyline points="20.5,101.5 20.5,121.5 41,121.5 41,141 61,141 61,160.5 81,160.5 81,181 120,181 120,201 161,201 161,181.5
    141,181.5 141,160.5 101,160.5 101,141 81,141 81,122 60,122 60,101.5 "/>
  <polyline points="181,101.5 221,101.5 221,81 240.5,81 240.5,61 281.5,61 281.5,41 340.5,41 340.5,21.5 260.75,21.5 260.75,41.5
    220.5,41 221.5,61.5 202,61.5 202,81 181,81 "/>
  <polyline points="360.5,41 360.5,59.5 321.5,61.5 321.5,41 301,41 301,81 382,81 382,61 401,61 401,41 421.5,41 421.5,101.5
    441,101.5 441,81 481,80.5 481,61.5 500.5,61.5 500.5,41 460.5,41 460.5,61.5 440.5,61.5 441,1.5 421.5,1.5 421.5,21.5 381,21.5
    380.5,40.5 "/>
  <polyline points="500.5,21 541.5,21 541.5,81 521,81 521,42 500.5,41 "/>
  <polyline points="561,101.5 561,81 541.5,81 541.5,101.5 "/>
  <polyline points="561,161.5 561,141 541.5,141 541.5,161.5 "/>
  <polyline points="701,81 701,60.5 681.5,60.5 681.5,81 "/>
  <polyline points="661,141 661,120.5 641.5,120.5 641.5,141 "/>
  <polyline points="641.333,161.5 641.333,141 621.833,141 621.833,161.5 "/>
  <polyline points="721,221.5 721,201 701.5,201 701.5,221.5 "/>
  <polyline points="800.333,481.167 800.333,460.667 780.833,460.667 780.833,481.167 "/>
  <polyline points="761,561.5 761,541 741.5,541 741.5,561.5 "/>
  <polyline points="721,641.5 721,621 701.5,621 701.5,641.5 "/>
  <polyline points="740.5,662 740.5,641.5 721,641.5 721,662 "/>
  <polyline points="601,681.167 601,660.667 581.5,660.667 581.5,681.167 "/>
  <polyline points="580.5,701.667 580.5,681.167 561,681.167 561,701.667 "/>
  <polyline points="461,641.5 461,621 441.5,621 441.5,641.5 "/>
  <polyline points="180.667,701.5 180.667,681 161.167,681 161.167,701.5 "/>
  <polyline points="100.667,300.667 100.667,241.334 120.333,241.334 120.333,221.334 141,221.334 141,201 100.667,201 100.667,221
    80.667,221 80.667,300.667 61.333,300.667 61.333,341.333 101.167,341.333 101.167,381.333 81.333,381.333 81.333,441 120.667,441
    120.667,480.667 101.167,480.667 101.167,541.334 141,541.334 141,681 161.167,681 161.167,580.667 180.667,580.667
    180.667,560.667 180.667,541.334 161.333,541.334 161.333,521 121,521 121,501 141.333,501 141.333,421.334 101.333,421.334
    101.333,401.667 121,401.667 121,321.333 80.667,321.333 80.667,300.667 "/>
  <polyline points="141,100.5 141,120.333 181,120.333 181,100.5 "/>
  <polyline points="200.667,120.333 200.667,161.333 181,161.333 181,120.333 "/>
  <polyline points="180.5,181.833 180.5,161.333 161,161.333 161,181.833 "/>
  <polyline points="761,581 761,641.5 740.5,641.5 740.5,600.5 701.5,600.5 701.5,621 620.75,621 620.75,660.667 601,660.667 601,621
    561,621 561,681.167 541,681.167 541,621 461,621 461,600.5 701.5,600.5 701.5,581 761,581 761,560.5 780.5,560.5 780.5,581 "/>
  <polygon points="800.333,481.167 800.333,501.667 761,501.667 761,541.001 780.834,541.001 780.5,521 800.333,521 800.333,501.667
    819,501.667 819,481.167 "/>
  <polyline points="761.167,301.5 761,341.5 780.667,341.5 780.667,361.5 800.334,361.5 800.334,401 780.667,400.5 780.834,460.667
    761,460.667 761,400.5 780.667,400.5 780.667,361.5 741,361.5 741,301.5 761.167,301.5 761.167,281 780.667,281 780.667,301.5 "/>
  <polyline points="800.333,281 800.333,240.5 760,240.5 760,182 721,182 721,201 741,201 741,241 760,240.5 760.666,261 781,261.5
    780.666,281 "/>
  <polyline points="641.5,21 741,21 741,41.5 721,41.5 721,60.5 701,60.5 701,40.75 641.5,40.75 641.5,60.5 600,60.5 600,81 561,81
    561,60.5 600,60.5 600,40.5 641.5,40.75 "/>
  <polygon points="661,161.5 701.5,161.5 701.5,201 681,201 681.25,181.25 661,181.25 "/>
  <polyline points="681.25,120.5 681.5,81 661,81 661,120.5 "/>
  <polyline points="621.833,181.25 561,181.25 561,161.5 621.833,161.5 "/>
  <polyline points="521,101.5 521,141 541.5,141 541.5,101.5 "/>
  <polyline points="201.5,681 201.5,660.5 221.5,660.5 221.5,620.833 240,620.833 240,601 220.75,601 220.75,581 201.5,581
    201.5,560.5 180.667,560.667 180.667,601 200.5,601 200.5,641.5 180.667,641.5 180.667,681 "/>
  <g id="tongue">
    <polygon fill="#F365A1" class="tongue-1" points="261.121,441 262.5,681.167 281,681 281.743,721.496 300,721.5 300,741.5 340,741 340,760 401,760
      401,741.333 381.5,741.333 381.5,720.667 361.375,721.333 361.375,701.667 341.25,701.5 341.25,681 320,681 320.75,460.667
      301,460.667 301,481.167 280.75,481.167 280.75,441   "/>
    <polygon fill="#F365A1" class="tongue-2" points="340.25,460.667 341.25,681 359.75,681 361.375,701.667 381.5,701.5 381.5,720.667 401,720.667
      401,741.334 461,740.5 461,701.5 441.5,701.5 441.5,681.167 420.5,681.167 421.25,461.5 401.75,461.5 401,481.167 381.5,481.167
      381.5,460.667   "/>
    <polygon fill="#FD2B83" class="tongue-3" points="360.75,421 341.25,421 340.25,441.583 320.75,441 320,681 341.25,681 340.25,460.667
      360.75,460.667  "/>
    <polygon fill="#FD2B83" class="tongue-4" points="360.667,701.583 360.667,680.916 341.25,680.916 341.25,701.416   "/>
    <polygon fill="#FD2B83" class="tongue-5" points="381.167,722.333 381.167,701.666 361.75,701.666 361.75,722.166   "/>
    <polygon fill="#FD2B83" class="tongue-6" points="400.958,742 400.958,721.333 381.542,721.333 381.542,741.833   "/>
    <polygon fill="#FD2B83" class="tongue-7" points="420.208,762 420.208,741.333 400.792,741.333 400.792,761.833   "/>
    <path class="tongue-8" d="M420,779c0,0-80,3-80,0v-19h-59v-18.5h-20.5v-40l-20.5,0.167V420h21l1.5,261.167L281,681l0.743,40.496L300,721.5v20l40-0.5
      v19l80,0.5l0.5-19.5l40.5-0.5v-39h-19.5v-20.333h-21l1-261.167h20v240.667H461V681h18.5v59.5H461v21l-41-1"/>
  </g>

  <g>
    <defs>
      <rect id="SVGID_1_" width="819" height="779"/>
    </defs>
    <clipPath id="SVGID_2_">
      <use xlink:href="#SVGID_1_"  overflow="visible"/>
    </clipPath>
    <polyline clip-path="url(#SVGID_2_)" points="240.583,461.5 240.583,441 221.083,441 221.083,461.5  "/>
    <polyline clip-path="url(#SVGID_2_)" points="401,481.167 401,460.667 381.5,460.667 381.5,481.167  "/>
    <polyline clip-path="url(#SVGID_2_)" points="421.25,461.5 421.25,441 401.75,441 401.75,461.5  "/>
    <polyline clip-path="url(#SVGID_2_)" points="461,421 461,400.5 441.5,400.5 441.5,421  "/>
    <polyline clip-path="url(#SVGID_2_)" points="480.5,481.25 480.5,460.75 461,460.75 461,481.25  "/>
    <polyline clip-path="url(#SVGID_2_)" points="461,461.5 461,441 441.5,441 441.5,461.5  "/>
    <polyline clip-path="url(#SVGID_2_)" points="501,461.5 501,441 481.5,441 481.5,461.5  "/>
    <polyline clip-path="url(#SVGID_2_)" points="201.25,381.083 201.25,441 221.083,441 221.083,381.083 221.083,360.583
      240.583,360.583 240.583,381.083   "/>
    <polyline clip-path="url(#SVGID_2_)" points="261.25,400.792 261.121,441 280.75,441 280.75,400.792   "/>
    <polyline clip-path="url(#SVGID_2_)" points="320.75,441 320.75,460.667 301,460.667 301,481.167 280.75,481.167 280.75,441
      320.75,441 320.75,420.5 340.25,420.5 340.25,441   "/>
    <polyline clip-path="url(#SVGID_2_)" points="381.5,420.896 381.5,460.667 361.375,460.667 360.75,421 360.75,400.5 341.25,400.5
      341.25,421  "/>
    <polyline clip-path="url(#SVGID_2_)" points="501,400.5 501,441 521,441 521,401.583 521,381.083 540.5,381.083 540.5,401.583  "/>
    <polygon clip-path="url(#SVGID_2_)" fill="#C2EDFE" points="181,100.75 220.917,100.5 220.917,81 240.583,81 241.583,60.5
      281.5,60.5 282,40.667 301,40.667 300.667,80 381.5,81 381.5,61.5 400.75,61.5 401.75,40.667 421.25,41 421.25,100.5 441,100.75
      440.667,81.333 481.5,80.667 481.5,61.5 500.667,61.5 501,40.667 520.75,41.988 521.333,80.667 540.5,81 540.5,100.75 521,101.5
      520.75,140.833 540.5,140.833 540.5,161.333 561,161.333 561.333,180.667 621.833,181.25 621.833,161.5 641.333,161.333
      641.333,140.833 661,140.833 662,181.333 681.249,181.333 681,201 701,201 701,221.5 721,220.333 721.333,200.667 740,200
      741,240.667 760.005,240.667 760.005,260.667 780.667,260.667 780.667,281 762,281 761.333,300.667 741,300.667 741.333,361.333
      760.667,361.5 760.667,400.5 741.5,400.5 741.5,421 721,420.5 721,461.5 701.5,460.667 701.5,481.25 680.667,481.25
      681.333,501.333 660.667,501.333 660.667,521.333 640.667,521.333 640.667,541 600.667,541 600.667,560.5 481.5,560.5 481.5,541
      461,541 461,520 441.333,520.667 441.167,481.167 461,481.167 461,500.667 501,500.667 501,481.25 520.75,481.25 520.75,460.667
      540.5,460.667 540.5,380 521,380 521,400.792 500.333,400.792 501,441 480.5,441 480.667,460.667 461,461.5 460,440.667
      441.167,441 441.167,420 461,420 461,400 441.5,399.333 441.167,420 421.25,420.5 421.25,440 401,441 401,460.667 381.5,461.5
      381.5,421 360.667,421.333 360.75,400.792 340.25,400.792 340.25,420 320.75,420.5 320.667,442 280.667,441.333 280.5,400.792
      261.121,400.792 261.25,420 240,420 240.583,440.667 220.917,441 220.917,381.083 240,381.083 240,360.583 222,361.333
      220.917,381.083 200.667,381.083 200.667,460.667 221.083,461.5 220.917,481.167 240,481.167 239.333,520.667 220.917,520.667
      220.917,541 200.667,541 200.667,521.333 180.667,522 180.667,500.667 161.167,500.667 158.667,481.167 141.333,481.167
      141.333,420 101.333,420 101.333,400.792 121,400.792 121,320.667 80.667,321.333 80.667,300.667 100.667,300.583 99.333,240.667
      120.333,240.667 121,220.333 141,220.333 141,201 161,201.333 161,181.25 180.5,181.25 180.5,161.333 200,160.667 200.667,120.5
      180.5,120.333   "/>
    <polyline id="eye2" clip-path="url(#SVGID_2_)" points="220.5,181.25 260.75,181.25 260.75,201 280.5,201 280.5,261 261,261
      260.5,281 220.5,281 220.5,261.5 200.667,261 200.667,201 221.5,201   "/>
    <polyline id="eye1" clip-path="url(#SVGID_2_)" points="461,181.625 501.25,181.625 501.25,201.375 521,201.375 521,261.375
      501.5,261.375 501,281.375 461,281.375 461,261.875 441.167,261.375 441.167,201.375 462,201.375   "/>
    <polyline id="iris2" clip-path="url(#SVGID_2_)" fill="#FFFFFF" points="480.667,220.333 480.667,240.667 500.334,240.667
      500.334,220.333   "/>
    <polyline id="iris" clip-path="url(#SVGID_2_)" fill="#FFFFFF" points="261.25,220.333 261.25,240.667 241.583,240.667
      241.583,220.333   "/>
    <polygon clip-path="url(#SVGID_2_)" fill="#53BDEA" points="441.167,521.333 461,521.333 461,541 480.667,541 479.5,561.5
      601,560.5 601,541 641.334,541 641.334,521.333 660.667,521.333 660.667,500 680.667,500 680.667,481.166 701.5,481.166
      701.5,461.5 721,461.5 721,421 740.5,421 740.5,400.791 761,400.5 761,460.666 780.834,460.666 780.834,481.166 800.334,481.166
      800.334,501.666 761,500 761,541 741.5,542 741.5,561.5 761,561.5 761,581 701.5,581 701.5,600.5 461,600.5 461,621 441.5,621   "/>
    <polygon clip-path="url(#SVGID_2_)" fill="#53BDEA" points="141.333,481.167 161.167,481.167 161.167,500.667 180.667,500.667
      180.667,519.334 200.667,519.334 200.667,539.334 220.917,539.334 220.917,521.334 240,521.334 240,601 220.75,601 220.75,581
      201.5,581 202.667,560.5 180.667,560.667 180.667,541.084 161.333,541.334 161.167,521 121,521 121,501 141.333,501   "/>
    <polygon clip-path="url(#SVGID_2_)" fill="#53BDEA" points="161.167,580.667 161.167,681 180.667,681 180.667,641.5 200.5,641.5
      200.5,601 180.833,601 180.667,580.667   "/>
    <polygon clip-path="url(#SVGID_2_)" fill="#53BDEA" points="561,621 561,681.167 581.5,681.167 581.5,660.667 601,660.667 601,621
        "/>
    <polygon clip-path="url(#SVGID_2_)" fill="#53BDEA" points="701.5,600.5 701.5,621 721,621 721,641.5 740.5,641.5 740.5,600.5  "/>
    <polygon clip-path="url(#SVGID_2_)" fill="#53BDEA" points="521,401.583 540.5,401.583 540.5,461.5 520.75,461.5 520.75,481.166
      501,481.166 501,501.333 461,501.333 461,481.25 481.5,481.25 481.5,461.5 501,461.5 501,441 520.75,441  "/>
    <rect x="441.5" y="461.5" clip-path="url(#SVGID_2_)" fill="#53BDEA" width="19.5" height="19.75"/>
    <rect x="220.5" y="461.5" clip-path="url(#SVGID_2_)" fill="#53BDEA" width="19.5" height="19.75"/>
    <rect x="201.25" y="441.583" clip-path="url(#SVGID_2_)" fill="#53BDEA" width="19.5" height="19.75"/>
    <polygon clip-path="url(#SVGID_2_)" fill="#53BDEA" points="761,361.5 761,400.5 780.5,401.583 780.667,361.5  "/>
    <rect x="60" y="101.5" clip-path="url(#SVGID_2_)" fill="#966B20" width="21" height="20.5"/>
    <polygon clip-path="url(#SVGID_2_)" fill="#966B20" points="141,120.333 141,140.833 121,140.833 121,160.5 101,160.5 101,141
      121,140.833 121,120.333   "/>
    <polygon clip-path="url(#SVGID_2_)" fill="#966B20" points="641.5,40.75 661,40.75 661,60.5 681.5,60.5 681.5,81 661,81 661,60.5
      641.5,60.5  "/>
    <polygon clip-path="url(#SVGID_2_)" fill="#966B20" points="581,81 581,101.5 600.5,101.5 600.5,120.5 621.833,121.25 621.833,141
      641.5,141 641.5,120.5 621.833,121.25 621.833,101.5 600.5,101.5 600,81   "/>
    <polygon clip-path="url(#SVGID_2_)" fill="#C18827" points="561,81 561,101.5 541.5,101.5 541.5,141 561,141 561,161.5
      621.833,161.5 621.833,121.25 600.5,120.5 600.5,101.5 581,101.5 581,81   "/>
    <polygon clip-path="url(#SVGID_2_)" fill="#C18827" points="600,60.5 600.5,101.5 621.833,101.5 621.833,121.25 661,120.5
      661,60.5  "/>
    <rect x="661" y="40.75" clip-path="url(#SVGID_2_)" fill="#C18827" width="40" height="19.75"/>
    <rect x="20.5" y="81" clip-path="url(#SVGID_2_)" fill="#C18827" width="60.5" height="20.5"/>
    <polygon clip-path="url(#SVGID_2_)" fill="#C18827" points="81,141 81,101.5 141,101.5 141,120.333 121,120.333 121,140.833  "/>
    <polygon clip-path="url(#SVGID_2_)" fill="#C18827" points="121,160.5 141,160.5 141,181.5 161,181.5 161,161.333 180.5,161.333
      181,120.333 141,120.333 141,140.833 121,140.833   "/>
  </g>
  <g id="moustache">
  </g>
</svg>